<?xml version="1.0" encoding="UTF-8" standalone="no"?>
<!DOCTYPE svg PUBLIC "-//W3C//DTD SVG 1.1//EN" "http://www.w3.org/Graphics/SVG/1.1/DTD/svg11.dtd">
<svg width="100%" height="100%" viewBox="0 0 250 600" version="1.1" xmlns="http://www.w3.org/2000/svg" xmlns:xlink="http://www.w3.org/1999/xlink" xml:space="preserve" xmlns:serif="http://www.serif.com/" style="fill-rule:evenodd;clip-rule:evenodd;stroke-linecap:round;stroke-linejoin:round;stroke-miterlimit:1.5;">
    <path d="M144.49,19.108C134.302,19.108 122.494,15.053 112.389,17.58C103.716,19.748 96.428,24.031 87.93,28.28C83.506,30.492 74.38,31.687 71.879,36.688C70.917,38.611 80.915,41.192 81.815,41.274C89.069,41.933 115.383,39.682 119.268,43.567C120.45,44.749 133.759,47.854 129.968,52.739C125.191,58.895 115.29,59.03 108.567,60.382C96.071,62.896 83.662,65.644 71.078,67.741C67.515,68.335 38.613,74.939 42.834,66.497C45.123,61.92 56.907,68.171 58.885,68.79C70.32,72.363 81.213,75.164 91.752,81.019C93.611,82.052 103.364,87.751 99.395,91.72C97.845,93.269 96.661,88.272 95.573,86.369C91.925,79.986 88.792,72.806 85.637,66.497C84.718,64.66 83.498,70.01 82.58,71.847C80.016,76.975 76.997,80.876 74.936,86.369C74.126,88.53 74.172,93.248 74.172,93.248C74.172,93.248 70.215,86.548 68.057,83.312C66.477,80.942 56.157,70.282 58.121,66.497C64.195,54.791 90.427,51.076 101.688,53.503C109.518,55.191 117.555,60.546 125.382,61.146C126.794,61.255 126.002,57.902 126.146,57.325C127.953,50.099 124.83,45.492 118.503,41.274C117.766,40.782 113.645,37.725 112.389,38.981C111.753,39.617 123.869,39.075 124.618,38.981C130.406,38.257 139.923,34.656 146.019,36.688C149.296,37.78 153.862,46.907 155.955,45.86C163.299,42.188 169.801,32.766 175.064,26.752C175.695,26.03 179.968,20.637 180.414,20.637C182.51,20.637 185.766,26.697 186.529,28.28C188.35,32.063 198.295,54.418 201.051,55.796C204.962,57.752 203.925,43.322 204.108,43.567C209.333,50.533 210.154,61.065 214.045,68.79C215.365,71.412 220.771,78.573 218.631,71.083C217.456,66.973 214.784,63.183 212.516,59.618C195.806,33.359 176.295,45.609 162.309,67.987C160.121,71.488 152.736,93.087 155.955,96.306C158.033,98.384 157.424,90.886 152.934,84.151C147.974,76.711 145.456,69.733 138.376,63.439C137.016,62.231 132.475,57.644 129.968,58.854C121.201,63.085 122.246,83.227 123.854,90.191C123.916,90.463 129.04,103.348 130.732,101.656C132.799,99.589 123.832,89.568 123.089,88.662C114.005,77.576 101.92,68.315 87.166,67.261C76.64,66.509 62.721,77.211 73.408,87.898C74.78,89.27 72.279,84.1 71.115,82.548C68.112,78.544 63.059,70.124 57.357,69.554C51.158,68.934 48.647,73.905 45.892,78.726C41.034,87.226 35.783,110.16 33.662,120.764C33.202,123.066 28.854,133.536 31.369,136.051C32.866,137.547 38.964,131.502 39.013,131.465C45.498,126.476 51.817,121.197 58.561,116.56C78.555,102.814 103.921,90.572 127.965,86.2C150.36,82.128 166.068,96.57 178.121,114.65C179.801,117.169 190.975,135.427 189.586,136.815C188.467,137.934 168.132,129.95 165.127,128.408C143.53,117.321 121.944,109.107 99.395,100.127C93.259,97.684 86.762,95.663 81.051,92.484C79.256,91.485 77.529,88.491 75.701,89.427C72.353,91.14 80.465,102.965 81.815,104.713C93.675,120.076 108.285,127.599 124.618,137.58C134.564,143.658 142.535,148.707 142.197,149.045C139.044,152.198 127.751,154.713 124.618,155.924C112.669,160.539 87.003,169.963 87.003,186.849C87.003,201.407 111.505,214.31 123.365,218.263C128.223,219.883 127.874,219.816 133.025,221.656C135.302,222.469 139.904,223.949 139.904,223.949C139.904,223.949 134.441,221.365 131.497,220.892C124.652,219.792 116.724,220.256 110.096,218.599C108.622,218.23 103.001,214.993 102.452,215.541C100.347,217.647 106.374,225.283 107.038,226.242C114.808,237.466 124.344,243.483 135.318,251.465C137.359,252.949 145.791,258.035 143.726,262.166C140.406,268.806 130.666,270.576 124.618,272.866C115.344,276.378 94.844,282.767 87.93,289.682C87.26,290.351 98.582,293.909 99.395,294.268C110.233,299.042 119.487,303.332 122.325,314.904C127.885,337.578 121.151,362.186 116.975,384.459C113.782,401.487 116.975,415.238 116.975,431.847C116.975,441.256 114.851,450.79 113.917,460.127C113.774,461.561 113.538,469.678 112.389,470.828C111.32,471.896 108.11,465.841 107.803,465.478C103.941,460.907 98.986,456.661 94.809,452.484C77.178,434.853 60.349,420.739 58.885,394.395C55.93,341.195 101.583,298.013 94.809,243.822C91.691,218.882 74.472,201.695 56.153,186.707C50.848,182.366 44.543,179.258 38.248,176.561C36.027,175.608 31.369,174.268 31.369,174.268C31.369,174.268 32.942,173.863 33.662,173.503C37.155,171.757 40.954,171.048 44.363,168.917C51.805,164.266 54.433,158.179 55.828,149.809C58.318,134.869 63.127,119.683 54.773,105.759C52.254,101.561 47.623,96.695 43.599,94.013L39.013,90.955C37.887,90.055 34.936,86.879 35.955,87.898C40.235,92.177 45.453,93.734 50.478,97.07C62.435,105.009 80.535,119.57 83.344,134.522C88.72,163.139 70.243,194.456 65,222.42C62.17,237.516 60.232,254.411 61.943,269.809C62.857,278.039 64.309,286.655 63.471,295.032C59.571,334.037 50.304,373.264 71.115,409.682C76.937,419.87 85.346,427.734 93.28,435.669C102.948,445.336 105.968,465.027 120.796,468.535C123.823,469.251 127.704,469.831 130.732,470.064C134.37,470.344 143.461,471.515 146.783,469.299C149.473,467.507 148.312,462.92 148.312,460.127C148.312,448.126 145.109,436.262 145.761,424.149C146.275,414.592 155.152,405.29 160.541,398.217C170.763,384.8 182.761,371.014 189.586,355.414C196.995,338.479 195.617,320.414 197.229,302.675C198.269,291.235 200.287,280.645 200.287,269.045C200.287,260.408 202.315,249.124 200.287,240.764C196.496,225.145 187.54,210.619 181.943,195.669C179.484,189.103 173.278,178.859 175.828,171.21C177.268,166.891 180.933,163.019 181.943,158.981C183.96,150.91 184.061,142.209 185,133.758C189.148,96.428 199.365,52.346 152.819,38.382C130.817,31.781 125.382,39.289 125.382,60.382C125.382,79.383 128.206,94.382 139.027,110.613C152.169,130.326 168.513,142.017 185.764,157.452C189.874,161.129 204.511,170.321 201.815,178.089C197.975,189.153 179.803,193.185 170.611,196.468C140.804,207.113 111.363,218.418 82.716,231.946C74.728,235.718 44.073,249.908 44.073,262.483C44.073,270.691 56.812,275.204 62.333,278.717C83.265,292.038 108.391,298.799 129.968,311.083C132.993,312.805 153.971,326.644 146.783,333.248C142.963,336.759 125.214,340.556 123.089,336.306C119.553,329.233 121.803,306.317 120.796,297.325C119.901,289.325 115.737,278.832 110.096,272.866C108.195,270.857 106.688,268.694 104.745,266.752C103.592,265.598 100.057,262.93 101.688,262.93C105.475,262.93 117.029,269.634 119.268,270.573C123.805,272.476 128.473,274.056 133.025,275.924C138.411,278.133 143.719,280.526 149.076,282.803C153.319,284.606 178.121,295.616 178.121,301.146C178.121,302.948 174.524,300.795 172.771,300.382C161.983,297.844 162.378,297.349 151.369,295.032C132.825,291.128 104.384,291.438 92.019,274.127C86.586,266.522 85.23,258.174 90.987,250.701C92.268,249.038 99.016,241.347 99.395,242.293C104.181,254.257 94.487,265.776 86.074,272.987C84.555,274.289 73.619,282.25 71.879,280.51C64.395,273.026 61.427,258.449 58.121,248.408C56.936,244.81 55.594,241.267 54.299,237.707C53.749,236.193 52.771,233.121 52.771,233.121C52.771,233.121 55.348,237.502 56.236,239.869C57.588,243.476 59.237,247.034 60.414,250.701C65.516,266.59 66.224,284.649 68.057,301.146C68.598,306.009 69.09,310.907 69.895,315.737C70.259,317.921 72.643,321.783 72.643,321.783C72.643,321.783 68.567,320.764 66.529,320.255C61.515,319.001 54.465,318.44 49.713,321.019C39.832,326.383 27.814,341.216 33.808,353.205C38.238,362.065 49.063,367.12 57.357,371.465C70.8,378.508 84.586,385.367 96.338,395.159C97.722,396.313 98.954,397.642 100.159,398.981C113.137,413.401 83.806,410.778 87.166,422.675C90.109,433.098 104.65,453.776 111.624,463.185C114.066,466.48 125.463,476.78 125.463,479.226C125.463,482.744 112.105,491.835 110.096,499.873C107.996,508.271 109.145,518.838 110.096,527.389C110.23,528.602 113.204,536.509 112.389,537.325C110.554,539.159 103.209,538.009 101.688,538.089C92.773,538.558 83.842,538.385 74.936,538.854C69.204,539.155 58.475,541.5 62.707,545.732C63.726,546.752 63.471,544.968 63.471,544.968C63.471,539.622 63.009,534.806 61.178,529.682C57.364,519.001 49.417,510.154 46.656,499.108C46.458,498.317 43.853,489.427 44.363,489.172C47.382,487.663 55.982,489.366 58.885,489.172C67.656,488.587 76.132,485.933 84.873,485.35C89.956,485.011 102.084,485.689 103.981,480C108.764,465.652 92.39,449.801 83.344,441.783C80.171,438.971 77.393,436.138 73.692,434.024C72.091,433.109 67.937,431.143 69.586,430.318C71.016,429.604 80.273,433.181 81.051,433.376C90.036,435.622 98.591,437.084 107.803,437.962C107.854,437.967 123.917,440.152 124.618,438.726C125.808,436.304 107.322,419.719 104.882,417.976C84.066,403.108 57.22,394.606 38.248,378.344C33.896,374.613 48.238,374.577 48.949,374.522C57.315,373.879 70.514,375.234 72.643,364.586C75.794,348.832 62.214,330.113 53.535,317.962C52.42,316.401 41.811,302.934 45.127,299.618C46.613,298.132 49.261,300.447 51.242,301.146C61.903,304.909 72.089,310.24 82.952,313.343C84.163,313.689 89.872,317.379 90.987,316.433C92.571,315.09 87.625,311.486 87.166,311.083C79.834,304.653 72.444,298.274 65,291.975C61.134,288.704 57.651,284.978 53.535,282.038C51.916,280.882 48.949,276.227 48.949,278.217C48.949,281.093 54.641,284.3 56.531,285.482C65.099,290.836 72.944,296.921 81.815,301.911C84.719,303.544 91.676,307.337 92.516,306.497C92.917,306.095 88.916,295.268 86.401,291.21C77.254,276.451 66.522,262.409 54.299,249.936C53.312,248.929 40.424,237.339 40.541,236.943C40.967,235.504 49.87,240.291 50.448,240.507C60.514,244.282 72.077,246.276 82.58,247.643C83.963,247.823 89.699,251.224 90.987,249.936C93.969,246.955 86.396,235.318 85.637,233.885C75.456,214.654 58.816,199.286 42.07,185.732C35.446,180.371 28.389,175.356 21.433,170.446C19.352,168.977 12.847,165.242 15.318,165.86C24.624,168.186 35.355,174.855 44.363,178.089C58.527,183.174 58.36,182.976 72.643,187.261C75.963,188.257 79.226,189.444 82.58,190.318C82.756,190.365 95.668,194.046 97.102,192.611C97.998,191.715 93.174,184.363 92.516,183.439C86.219,174.608 77.983,166.614 70.35,158.981C68.567,157.197 66.783,155.414 65,153.631C63.339,151.97 58.706,149.892 60.414,148.28C62.41,146.397 65.482,150.389 68.057,151.338C76.309,154.378 83.983,157.069 92.516,158.981C93.086,159.109 101.479,162.142 103.217,161.274C105.596,160.084 101.911,156.1 100.924,153.631C99.402,149.828 91.838,134.011 94.045,130.701C101.442,119.604 127.827,129.995 137.611,133.758C142.426,135.61 152.134,139.108 152.134,139.108C152.134,139.108 144.479,139.401 140.669,139.108C136.573,138.793 132.528,137.979 128.439,137.58C109.895,135.77 110.024,136.368 91.752,133.758C86.159,132.959 75.159,134.015 74.172,126.115C71.361,103.625 114.383,89.363 129.204,77.962C132.819,75.181 143.726,67.359 143.726,62.675L143.726,61.146C115.007,46.787 79.3,43.575 47.42,40.51C36.247,39.435 29.541,39.343 19.14,37.452C16.282,36.933 10.732,35.159 10.732,35.159L13.025,35.159C16.041,35.159 19.201,34.909 22.197,35.159C31.298,35.918 39.786,37.452 48.949,37.452C56.607,37.452 59.415,31.234 65.371,31.234C69.216,31.234 75.948,36.53 79.522,38.217C93.201,44.67 109.118,51.219 116.975,64.968C124.531,78.192 100.53,91.236 92.516,95.541C87.697,98.13 82.776,100.528 77.994,103.185C73.601,105.625 69.353,108.317 65,110.828C62.131,112.483 54.972,115.17 52.771,118.471C52.089,119.494 55.807,119.994 55.828,120C60.666,121.382 60.539,120.764 66.529,120.764C76.658,120.764 96.989,116.784 103.981,126.879C107.177,131.494 106.929,139.982 108.567,145.223C112.875,159.008 119.225,171.444 126.911,183.439C130.257,188.662 134.68,201.433 142.197,203.312C148.427,204.869 149.181,195.806 149.841,191.847C151.742,180.44 152.962,168.28 152.134,156.688C151.873,153.037 148.746,145.119 150.605,141.401C151.321,139.97 156.439,140.637 158.248,140.637C168.52,140.637 175.61,143.154 185,147.516C189.259,149.494 191.295,151.203 194.936,153.631C195.236,153.83 195.701,154.395 195.701,154.395C195.701,154.395 195.145,149.814 194.936,147.516C194.365,141.23 194.494,134.377 196.732,128.408C202.129,114.016 224.807,91.782 210.223,77.197C209.116,76.091 202.245,77.365 201.051,77.962C191.317,82.829 191.12,94.081 191.879,103.949C192.725,114.945 196.423,123.759 202.58,132.994C205.912,137.992 214.881,146.832 214.045,153.631C213.575,157.445 200.424,161.97 197.229,163.567C180.826,171.763 154.32,177.57 154.32,199.092C154.32,208.481 168.314,224.556 174.299,232.357C191.991,255.413 203.1,260.477 201.051,291.21C199.958,307.612 196.959,323.566 197.994,340.127C198.487,348.015 203.647,360.619 201.051,368.408C199.897,371.871 193.716,371.838 191.115,372.994C180.058,377.908 170.059,383.369 168.949,396.688C168.006,408.004 171.563,418.731 176.592,428.79C176.663,428.931 182.698,438.293 183.471,437.962C184.684,437.442 178.286,425.299 178.121,424.968C172.387,413.499 165.998,405.501 157.484,395.924C155.593,393.796 151.13,387.994 152.898,384.459C157.54,375.175 170.006,381.109 174.299,376.815C175.218,375.897 173.535,372.994 173.535,372.994C173.535,372.994 176.023,376.426 176.592,375.287C182.216,364.039 166.773,338.129 169.713,326.369C171.405,319.602 184.37,311.327 188.822,304.204C199.496,287.124 194.799,262.152 182.707,246.879C178.204,241.192 171.331,238.561 166.656,233.885C165.025,232.254 171.236,233.313 173.535,233.121C179.033,232.663 194.072,231.994 195.701,225.478C199.899,208.682 169.102,191.488 156.72,188.025C152.26,186.778 147.467,186.008 142.962,184.968C141.452,184.62 138.376,182.654 138.376,184.204C138.376,200.441 162.649,223.394 167.42,237.707C169.027,242.528 151.527,245.193 148.312,248.408C143.697,253.023 153.191,266.059 155.191,269.809C161.131,280.947 168.439,291.027 173.535,302.675C175.668,307.55 176.68,312.154 178.121,317.197C178.498,318.517 180.791,321.78 179.65,321.019C174.832,317.807 165.014,316.262 159.777,314.904C154.253,313.472 148.629,312.439 143.115,310.968C140.517,310.275 127.024,306.384 124.618,308.79C122.908,310.5 126.178,318.025 126.911,319.49C132.948,331.566 140.306,341.293 149.841,350.828C153.924,354.911 158.25,358.09 162.834,361.529C163.29,361.87 164.363,361.723 164.363,362.293C164.363,364.095 160.811,362.952 159.013,363.057C156.203,363.223 153.412,363.621 150.605,363.822C142.436,364.405 111.341,363.341 104.745,369.936C101.052,373.629 107.238,380.996 109.644,383.402C117.1,390.858 138.306,402.593 141.433,411.975C142.532,415.272 135.8,414.84 134.554,415.032C130.702,415.625 108.029,415.419 108.567,421.911C109.251,430.172 121.165,439.548 126.146,444.841C135.157,454.414 146.209,462.849 154.427,473.121C158.701,478.463 160.013,485.839 165.127,491.465C167.245,493.795 184.736,511.601 181.943,514.395C176.997,519.34 165.476,522.848 158.248,525.86C153.352,527.9 148.689,530.878 143.726,532.739C135.328,535.888 125.139,532.31 116.975,535.032C96.938,541.711 77.578,538.854 57.357,538.854C53.327,538.854 59.839,544.075 65.764,548.025C73.834,553.405 77.844,555.019 88.312,555.019C102.399,555.019 110.998,539.317 121.561,535.796C124.109,534.947 128.99,542.651 130.655,543.899C136.046,547.943 146.088,552.021 152.898,550.318C159.204,548.742 167.581,529.863 172.006,524.331C177.608,517.329 186.508,517.013 190.35,511.338C203.856,491.387 200.679,459.93 201.815,437.197C202.111,431.281 202.58,425.564 202.58,419.618C202.58,417.58 201.138,414.944 202.58,413.503C207.29,408.792 213.155,417.312 213.28,410.446C213.297,409.515 213.482,408.327 213.28,407.389C209.848,391.403 192.76,380.87 185.764,366.879C184.751,364.851 189.424,362.919 190.35,361.529C193.06,357.464 196.419,351.956 197.229,347.006C199.644,332.26 197.454,318.239 190.799,304.93C178.087,279.505 157.938,258.683 136.083,240.764C127.478,233.709 119.227,228.393 109.331,223.185C105.802,221.327 102.117,219.771 98.631,217.834C97.635,217.281 95.573,215.166 95.573,216.306C95.573,218.089 100.879,219.839 101.933,220.14C109.166,222.207 121.716,227.693 129.204,223.949C130.73,223.186 129.946,215.191 129.968,214.013C130.153,204.246 119.242,189.782 113.228,182.264C110.348,178.663 103.981,171.975 103.981,171.975C103.981,171.975 106.023,172.067 107.038,171.975C111.381,171.58 115.69,170.856 120.032,170.446C128.083,169.686 145.857,168.315 152.134,162.038C158.1,156.072 155.627,139.289 158.955,130.968C161.503,124.599 166.029,120.981 167.42,115.414C169.172,108.407 170.223,101.401 173.535,94.777C175.798,90.25 181.394,87.467 183.471,83.312C187.456,75.343 191.336,66.51 192.643,57.325C194.04,47.51 198.511,32.36 187.293,26.752C183.345,24.777 185.276,35.548 185.764,36.688C188.674,43.478 197.493,48.416 202.58,53.503C212.275,63.198 203.707,83.009 200.287,94.013C189.887,127.47 169.107,166.893 173.535,203.312C174.611,212.163 181.586,218.805 182.707,227.771C184.807,244.568 183.812,255.29 190.35,272.102C195.806,286.131 208.168,304.134 204.873,320.255C200.101,343.595 164.777,348.493 152.134,365.35C145.435,374.282 149.068,386.742 155.955,394.395C158.196,396.884 161.207,400.895 163.978,402.742C164.883,403.345 166.99,408.133 165.127,407.389C137.237,396.232 110.103,382.098 82.58,369.936C78.503,368.135 62.958,363.552 59.65,357.707C57.3,353.555 78.765,349.202 81.051,348.535C100.007,343.006 127.48,335.232 130.494,311.116C132.713,293.363 131.231,274.558 116.707,262.108C112.487,258.491 106.346,257.953 102.452,255.287C101.26,254.47 104.622,254.966 110.096,252.229C113.496,250.529 116.201,248.064 117.739,244.586C122.606,233.583 118.838,222.807 111.414,213.898C104.656,205.788 91.951,201.71 82.58,197.962C79.955,196.912 71.397,194.754 69.586,191.083C67.409,186.669 72.976,181.295 75.929,179.185C85.251,172.527 101.887,166.151 107.803,155.924C118.578,137.294 93.229,134.471 84.873,126.115C83.008,124.25 86.493,119.368 87.166,118.471C91.58,112.585 108.922,101.163 93.28,97.834C91.303,97.414 87.598,97.108 85.637,97.07C82.58,97.01 79.521,96.977 76.465,97.07C71.111,97.232 65.761,97.515 60.414,97.834C56.665,98.059 50.426,98.675 46.656,99.363C20.41,104.155 59.199,120.733 66.412,124.206C69.987,125.927 73.579,127.617 77.229,129.172C105.17,141.074 135.582,150.281 160.895,167.54C169.105,173.138 178.867,179.815 183.313,189.167C198.245,220.578 153.499,238.671 131.497,248.408C123.679,251.867 118.047,254.504 110.096,257.58C108.111,258.347 84.631,265.747 84.108,266.752C83.689,267.558 88.582,267.485 88.694,267.516C91.704,268.344 95.173,270.792 97.866,272.102C105.86,275.991 115.738,281.457 119.879,289.739C126.397,302.774 106.094,313.594 108.567,329.427C110.072,339.066 124.948,367.531 115.937,376.542C114.046,378.432 111.173,379.547 108.567,379.873C96.773,381.347 101.184,362.961 100.924,355.414C100.774,351.085 100.941,346.752 100.924,342.42C100.911,339.391 100.835,336.363 100.835,333.334C100.835,299.503 105.784,265.44 103.217,231.592C101.978,215.263 97.245,198.997 94.045,183.439C92.856,177.66 95.573,200.362 95.573,202.548C95.573,218.819 94.628,234.525 93.28,250.701C92.738,257.202 93.623,257.052 92.516,263.694C92.302,264.976 92.095,268.769 91.752,267.516C87.642,252.542 78.254,238.267 71.879,223.949C66.121,211.017 62.659,197.362 57.414,184.25C53.573,174.648 50.653,164.669 46.278,155.293C43.972,150.352 39.013,140.637 39.013,140.637C39.013,140.637 39.266,145.266 39.777,147.516C41.231,153.915 42.952,158.354 44.816,164.319C49.177,178.275 52.751,192.585 56.887,206.647C59.713,216.255 63.779,224.87 68.057,233.885C69.917,237.805 71.632,241.027 74.172,244.586C74.912,245.623 76.062,248.852 76.465,247.643C77.382,244.892 72.91,238.204 74.936,236.178C76.091,235.024 76.987,241.808 77.229,242.293C78.936,245.707 80.333,253.638 81.051,256.815C84.827,273.54 88.091,290.365 90.987,307.261C92.954,318.731 91.163,326.709 105.51,323.312C129.813,317.558 145.555,297.715 148.036,272.909C148.805,265.215 149.076,257.662 149.076,249.936C149.076,247.587 149.897,243.057 147.548,243.057C146.408,243.057 148.444,245.167 149.076,246.115C149.79,247.185 155.166,254.548 157.484,252.229C162.308,247.405 154.066,233.504 151.369,229.299C142.887,216.074 130.363,206.214 116.21,199.49C110.735,196.889 95.92,194.487 92.516,191.083C91.163,189.73 96.434,191.42 98.248,190.815C101.132,189.854 103.782,186.156 104.745,183.439C108.128,173.895 111.893,164.633 115.446,155.159C115.934,153.858 115.958,148.726 117.739,148.28C131.141,144.93 142.464,142.398 149.076,129.172C163.803,99.719 141.995,58.588 106.274,65.732C90.34,68.919 74.929,79.494 59.65,87.134C46.346,93.785 36.317,102.968 49.289,115.94C56.152,122.803 66.952,125.266 75.701,128.408C104.162,138.629 134.459,141.301 164.363,143.694C173.814,144.451 183.182,145.963 192.643,146.752C192.653,146.752 205.664,146.688 206.401,148.28C207.322,150.269 202.975,151.052 201.051,152.102C195.754,154.991 190.08,157.244 185,160.51C171.048,169.479 155.178,181.572 145.498,195.124C132.997,212.626 143.181,225.402 157.484,235.414C162.223,238.731 172.359,242.836 169.713,250.701C167.246,258.036 156.181,262.744 150.605,265.987C137.683,273.504 114.748,284.393 110.86,300.382C108.076,311.831 115.182,315.394 123.854,321.783C134.343,329.513 161.337,345.827 164.641,359.043C169.224,377.375 155.612,386.657 142.197,395.924C138.095,398.757 126.193,404.911 124.618,411.21C123.826,414.379 139.053,424.947 142.197,428.025C152.39,438.007 156.625,451.141 155.191,465.478C154.958,467.807 154.922,478.741 152.898,480.764C140.891,492.771 119.374,493.435 106.274,504.459C99.654,510.03 113.848,516.826 110.096,524.331C107.904,528.715 103.55,532.519 98.631,533.503C97.377,533.754 91.973,532.518 90.987,533.503C88.28,536.21 86.646,543.959 85.637,544.968C82.201,548.404 72.364,537.046 71.115,535.796C62.367,527.049 36.992,504.074 35.191,491.465C33.924,482.594 53.776,480.639 58.121,468.535C63.365,453.926 46.216,454.22 42.834,444.076C40.39,436.743 46.066,430.769 47.42,424.204C49.193,415.612 46.251,406.938 43.599,398.981C38.784,384.538 27.483,371.376 23.726,356.943C20.609,344.969 26.019,318.678 26.019,304.968C26.019,300.893 21.65,276.197 26.783,273.631C33.233,270.406 34.124,283.901 34.427,286.624C36.452,304.854 36.802,325.618 45.127,342.42C53.703,359.728 64.945,375.625 77.994,389.809C84.565,396.952 93.89,402.696 97.866,411.975C99.319,415.364 92.721,419.773 90.987,421.146C84.673,426.148 66.836,429.548 65,438.726C63.378,446.837 72.766,456.255 76.465,462.42C83.728,474.525 88.802,485.342 91.752,499.108C92.599,503.061 91.568,507.546 92.516,511.338C92.778,512.386 94.809,512.55 94.809,513.631C94.809,514.423 87.619,515.471 87.166,515.924C86.142,516.948 96.11,523.082 97.102,523.567C107.986,528.891 102.263,509.755 101.688,504.459C99.677,485.929 93.695,467.369 85.962,450.497C78.177,433.513 69.421,415.068 69.421,395.922C69.421,391.476 72.319,378.234 77.994,376.815C82.735,375.63 95.622,376.766 97.102,375.287C97.129,375.26 91.593,369.215 90.987,368.408C83.432,358.333 89.077,354.754 98.631,353.885C103.136,353.476 102.693,352.977 107.038,352.357C122.98,350.079 110.686,376.701 107.038,382.166C105.508,384.458 103.949,386.731 102.452,389.045C101.146,391.063 99.849,393.088 98.631,395.159C95.906,399.792 92.948,404.285 90.223,408.917C88.371,412.065 85.585,416.796 84.108,420.382C77.404,436.661 83.924,450.824 85.637,466.242C87.849,486.151 90.668,509.04 88.694,528.917C87.717,538.761 69.736,546.927 62.707,551.847C60.699,553.253 55,556.18 55.828,559.49C57.434,565.914 61.972,571.013 64.236,577.07C64.866,578.758 66.802,582.42 65,582.42C62.936,582.42 61.207,580.127 58.885,580.127C57.401,580.127 62.425,580.271 63.089,581.599C65.206,585.832 74.708,586.02 77.229,581.656C81.316,574.583 75.782,561.702 81.051,556.433C86.003,551.481 100.6,572.445 101.688,571.72C103.638,570.419 110.527,559.324 112.389,560.255C116.04,562.08 117.344,567.125 120.796,569.427C123.912,571.504 124.588,566.995 125.335,566.995C128.935,566.995 139.904,578.14 139.904,570.191C139.904,569.5 143.628,570.907 143.726,570.955C147.173,572.679 160.372,580.554 159.013,577.834C158.557,576.924 160.041,576.042 160.541,575.541C162.733,573.35 168.882,562.964 171.242,561.783C174.66,560.074 180.414,568.662 180.414,568.662C180.414,568.662 176.747,566.244 175.064,564.841C171.329,561.729 167.524,558.613 163.599,555.669C153.889,548.386 145.571,544.097 134.554,539.618C130.432,537.942 126.466,535.894 122.325,534.268C118.05,532.588 109.331,529.682 109.331,529.682C109.331,529.682 114.427,529.645 116.975,529.682C120.443,529.732 123.586,529.889 126.989,529.039C138.325,526.204 163.125,518.584 166.656,504.459C170.052,490.874 179.207,469.648 173.325,455.924C170.291,448.844 166.549,442.704 162.07,436.433C161.727,435.953 153.51,424.356 153.662,424.204C154.103,423.763 160.992,424.178 161.306,424.204C169.324,424.872 176.892,425.732 185,425.732C187.116,425.732 192.442,426.657 191.115,422.675C188.254,414.094 172.662,404.842 165.892,400.51C139.078,383.349 108.554,371.491 78.758,360.764C69.891,357.572 44.134,353.731 37.382,343.604C29.089,331.164 41.186,321.657 48.949,313.376C61.337,300.162 70.623,289.52 72.643,271.338C75.759,243.298 75.947,215.335 81.051,187.261C82.134,181.306 83.274,162.688 91.752,163.567C98.644,164.281 107.927,178.125 111.624,183.439C127.322,206.005 145.018,231.061 148.312,259.108C150.764,279.982 147.503,297.243 132.261,312.611C123.885,321.057 104.7,329.024 106.274,343.185C108.606,364.178 144.988,381.863 160.541,390.573C163.491,392.225 172.505,395.57 175.064,398.981C179.333,404.674 168.252,409.014 165.127,410.446C156.159,414.556 140.528,418.897 136.847,429.554C134.856,435.318 140.571,441.749 143.726,445.605C149.987,453.257 169.77,468.731 165.892,481.529C162.866,491.515 151.176,494.429 142.197,494.522C118.394,494.77 98.37,492.703 75.356,486.507C67.554,484.407 59.702,482.463 52.006,480C49.836,479.305 45.892,479.221 45.892,476.943C45.892,476.373 46.88,476.358 47.42,476.178C52.467,474.496 55.713,478.438 58.885,481.529C66.453,488.901 68.057,495.135 68.057,505.223C68.057,507.491 66.949,513.287 68.822,515.159C72.223,518.56 79.127,518.56 81.051,524.331C82.55,528.827 71.545,530.208 73.408,535.796C75.537,542.186 95.611,552.127 100.924,555.669C105.632,558.808 112.021,561.699 116.21,564.841C122.167,569.308 122.072,573.122 128.439,576.306C130.179,577.176 137.611,580.052 137.611,578.599" style="fill:none;stroke:url(#_Linear1);stroke-width:3px;"/>
    <defs>
        <linearGradient id="_Linear1" x1="0" y1="0" x2="1" y2="0" gradientUnits="userSpaceOnUse" gradientTransform="matrix(208.393,0,0,568.101,10.7325,300.801)"><stop offset="0" style="stop-color:rgb(0,22,255);stop-opacity:1"/><stop offset="0.93" style="stop-color:rgb(210,4,183);stop-opacity:1"/><stop offset="1" style="stop-color:rgb(255,0,167);stop-opacity:1"/></linearGradient>
    </defs>
</svg>
