<?xml version="1.0" encoding="UTF-8" standalone="no"?>
<!DOCTYPE svg PUBLIC "-//W3C//DTD SVG 1.1//EN" "http://www.w3.org/Graphics/SVG/1.1/DTD/svg11.dtd">
<svg width="100%" height="100%" viewBox="0 0 250 600" version="1.1" xmlns="http://www.w3.org/2000/svg" xmlns:xlink="http://www.w3.org/1999/xlink" xml:space="preserve" xmlns:serif="http://www.serif.com/" style="fill-rule:evenodd;clip-rule:evenodd;stroke-linecap:round;stroke-linejoin:round;stroke-miterlimit:1.5;">
    <g transform="matrix(1,0,0,1,-3.90982,-7.26115)">
        <path d="M131.497,35.159C118.516,35.159 115.12,69.342 119.268,81.783C120.148,84.424 118.878,91.33 120.796,93.248C125.159,97.611 120.498,104.117 123.089,109.299C126.938,116.998 126.609,133.134 123.854,141.401C122.236,146.254 123.973,152.508 122.325,157.452C117.625,171.552 113.895,197.918 120.796,211.72C122.862,215.851 120.796,226.958 120.796,231.592C120.796,251.166 117.742,270.556 113.917,289.682C110.65,306.017 106.338,336.242 96.338,346.242C91.334,351.245 79.133,359.423 69.586,354.65C66.969,353.341 54.217,342.503 59.65,337.07C66.723,329.997 68.243,314.828 74.936,304.204C78.036,299.283 79.502,293.034 82.58,288.153C96.745,265.686 102.629,250.406 107.038,223.949C107.552,220.866 107.038,217.153 107.038,214.013C107.038,191.865 94.249,198.539 81.051,194.14C76.956,192.775 65.699,192.677 62.707,195.669C54.877,203.499 46.159,200.484 39.013,214.777C35.348,222.106 47.48,245.41 52.771,250.701C60.192,258.122 66.756,266.619 74.936,273.631C92.797,288.94 112.985,301.147 127.675,320.255C145.36,343.259 156.037,370.892 168.949,396.688C175.826,410.427 165.949,418.796 156.72,428.025C137.158,447.588 93.597,461.582 66.529,457.07C59.491,455.897 60.717,453.552 57.357,450.191C45.024,437.858 58.605,416.356 65,403.567C72.806,387.956 85.273,375.272 98.631,364.586C113.328,352.828 125.167,334.993 135.318,324.841C143.532,316.627 147.266,317.872 156.72,301.911C161.677,293.542 167.843,286.076 172.771,277.452C181.68,261.86 188.127,245.003 198.758,230.828C200.572,228.409 213.917,213.821 217.102,218.599C222.339,226.454 217.607,241.035 215.573,249.172C211.598,265.073 201.616,277.113 193.408,291.21C192.362,293.006 189.917,294.083 189.089,295.739C185.85,302.217 184.179,310.603 182.707,317.962C179.673,333.132 202.053,350.012 207.166,365.35C211.974,379.776 202.63,408.766 197.994,422.675C193.931,434.862 202.5,451.116 197.229,461.656C194.326,467.463 172.518,485.095 168.949,486.879C165.167,488.77 159.957,496.905 153.662,493.758C139.107,486.48 138.232,479.188 122.325,473.885C119.348,472.893 114.239,469.138 110.86,470.828C101.001,475.758 70.387,483.748 66.529,491.465C64.441,495.641 78.643,509.924 73.408,515.159C69.416,519.151 58.273,526.932 55.828,534.268C51.664,546.761 54.922,565.463 62.707,573.248C69.489,580.03 87.568,560.617 91.752,556.433C94.003,554.181 96.593,551.999 98.631,549.554C100.475,547.341 106.549,537.723 110.096,540.382C114.879,543.97 118.653,550.468 122.325,554.14C123.253,555.068 124.413,551.362 125.382,551.847C127.841,553.077 127.258,557.753 129.204,558.726C130.984,559.616 133.873,557.281 134.554,557.962C136.408,559.816 135.116,564.639 136.847,566.369C137.739,567.261 140.541,566.242 141.433,567.134C148.673,574.374 149.237,573.047 159.013,576.306C161.343,577.083 162.114,579.363 164.363,579.363" style="fill:none;stroke:url(#_Linear1);stroke-width:3px;"/>
    </g>
    <defs>
        <linearGradient id="_Linear1" x1="0" y1="0" x2="1" y2="0" gradientUnits="userSpaceOnUse" gradientTransform="matrix(181.151,0,0,544.204,38.3345,307.261)"><stop offset="0" style="stop-color:rgb(0,22,255);stop-opacity:1"/><stop offset="0.93" style="stop-color:rgb(210,4,183);stop-opacity:1"/><stop offset="1" style="stop-color:rgb(255,0,167);stop-opacity:1"/></linearGradient>
    </defs>
</svg>
