<?xml version="1.0" encoding="UTF-8" standalone="no"?>
<!DOCTYPE svg PUBLIC "-//W3C//DTD SVG 1.1//EN" "http://www.w3.org/Graphics/SVG/1.1/DTD/svg11.dtd">
<svg width="100%" height="100%" viewBox="0 0 250 600" version="1.1" xmlns="http://www.w3.org/2000/svg" xmlns:xlink="http://www.w3.org/1999/xlink" xml:space="preserve" xmlns:serif="http://www.serif.com/" style="fill-rule:evenodd;clip-rule:evenodd;stroke-linecap:round;stroke-linejoin:round;stroke-miterlimit:1.5;">
    <path d="M123.854,25.987C123.854,29.207 131.284,39.194 128.439,42.038C107.111,63.367 73.408,60.534 73.408,95.541C73.408,99.277 72.579,104.584 74.172,107.771C75.605,110.637 80.074,106.454 81.051,105.478C86.118,100.411 93.862,95.251 99.395,92.484C101.689,91.337 105.864,95.602 107.038,97.07C111.499,102.646 117.38,109.12 123.854,112.357C128.432,114.646 133.212,99.487 137.611,102.42C143.21,106.152 148.455,112.953 152.134,118.471C153.405,120.378 155.824,128.364 158.248,129.172C163.149,130.805 169.181,128.653 174.299,130.701C186.804,135.703 198.459,149.676 202.58,162.038C203.348,164.344 207.496,176.23 204.873,178.854C202.346,181.38 197.457,175.508 196.465,174.268C189.834,165.978 188.077,155.421 187.293,145.223C185.631,123.622 195.326,102.183 166.656,97.834C161.048,96.984 155.918,96.199 150.239,96.199C144.628,96.199 140.041,100.601 136.083,103.949C123.367,114.704 113.253,128.921 107.038,144.459C104.987,149.586 105.127,157.071 100.924,161.274C97.019,165.178 87.093,162.177 82.58,161.274C60.977,156.953 53.419,134.696 36.72,159.745C33.808,164.112 32.068,167.147 31.369,172.739C30.492,179.756 30.385,187.061 29.841,194.14C29.045,204.483 30.105,215.937 35.955,224.713C40.352,231.309 49.202,207.456 49.713,206.369C58.996,186.644 68.632,169.569 83.344,153.631C87.259,149.389 97.021,135.355 105.51,139.873C117.495,146.251 124.631,164.024 126.911,176.561C127.803,181.465 129.731,190.789 122.325,191.847C109.061,193.742 82.086,179.985 68.822,175.796C66.071,174.928 51.61,169.559 48.949,170.446C47.236,171.017 46.817,191.431 47.42,194.14C56.632,235.502 99.791,253.581 138.376,249.172C148.179,248.052 158.025,242.293 167.42,242.293C178.082,242.293 175.064,256.299 175.064,264.459C175.064,267.544 174.299,269.882 174.299,272.866C174.299,273.917 173.741,276.954 173.535,275.924C170.071,258.602 171.081,238.472 172.006,220.892C173.476,192.975 184.691,175.032 152.134,165.86C124.951,158.202 110.161,171.179 101.688,194.904C98.801,202.988 96.772,214.119 100.159,222.42C107.134,239.514 126.759,250.664 143.726,255.287C149.887,256.965 155.915,258.958 162.07,260.637C164.402,261.273 170.658,261.221 168.949,262.93C163.458,268.421 153.5,270.813 146.783,274.395C135.34,280.498 118.276,289.908 110.86,297.325C109.417,298.768 98.807,296.705 97.866,296.561C91.289,295.549 58.252,293.24 54.299,301.146C45.711,318.322 74.638,336.143 86.447,340.079C89.958,341.249 92.533,343.949 96.338,343.949C97.518,343.949 94.056,339.391 94.045,339.363C93.15,337.144 93.885,334.538 92.516,332.484C92.09,331.846 90.814,326.96 91.752,327.898C100.837,336.983 102.72,354.026 110.096,364.586C111.46,366.54 113.855,374.553 116.975,372.994C126.786,368.088 127.675,340.985 127.675,332.484C127.675,327.668 129.157,320.685 126.146,316.433C122.946,311.914 109.249,298.172 102.452,304.968C99.308,308.113 92.925,321.121 98.631,322.548C104.586,324.037 112.012,318.134 116.21,314.904C130.336,304.038 132.33,288.392 121.561,273.631C106.631,253.168 74.638,244.182 52.484,235.567C44.278,232.375 34.799,229.245 26.025,228.148C21.954,227.639 22.259,227.536 18.376,226.242C17.143,225.831 14.554,224.179 14.554,225.478C14.554,233.871 25.804,251.622 30.605,259.108C34.096,264.553 33.249,272.375 35.191,278.217C39.483,291.127 52.184,295.91 64.236,299.618C78.966,304.15 94.357,308.324 109.331,311.847C115.024,313.187 125.059,315.157 126.911,319.49C128.445,323.082 133.647,328.077 136.083,330.955C138.43,333.729 143.736,339.88 146.019,342.42C154.908,352.311 183.41,373.097 195.072,355.604C210.175,332.95 192.074,307.011 178.121,289.682C174.338,284.982 168.477,275.614 162.07,273.631C156.016,271.757 149.124,274.788 143.726,276.688C138.199,278.633 127.285,280.858 123.854,286.624C120.466,292.318 126.022,296.413 129.968,299.618C140.525,308.191 156.447,304.832 167.42,310.318C169.879,311.548 170.547,320.53 171.242,323.312C174.713,337.197 182.768,349.917 185.764,363.822C190.669,386.583 150.282,383.425 136.847,384.459C134.048,384.674 125.325,384.516 123.089,386.752C118.433,391.408 132.825,400.752 134.564,401.839C146.442,409.263 160.578,412.178 174.299,413.503C175.756,413.644 184.25,415.407 186.529,414.268C188.606,413.229 173.725,405.252 170.014,403.661C157.565,398.326 144.586,391.999 133.79,383.694C130.132,380.88 123.406,376.842 121.561,372.229C120.692,370.059 120.478,365.032 119.268,363.822C118.094,362.649 112.799,364.997 112.389,364.586C110.274,362.472 109.661,358.353 108.127,355.796C104.028,348.964 103.94,335.562 102.452,336.306C100.519,337.272 100.751,342.173 100.159,343.949C97.58,351.687 97.102,360.987 97.102,369.172C97.102,394.745 94.425,417.311 119.268,433.376C126.872,438.294 136.3,440.379 145.255,441.019C147.376,441.171 167.835,441.991 159.777,437.962C157.267,436.707 149.884,453.533 148.312,457.07C147.443,459.025 145.943,461.12 145.255,463.185C145.094,463.668 145.615,465.074 145.255,464.713C132.892,452.351 128.129,416.634 129.204,400.51C129.461,396.657 133.956,374.835 131.497,371.465C127.037,365.354 119.481,365.876 112.389,364.586C99.722,362.283 64.873,355.304 58.885,373.758C57.252,378.794 57.832,384.585 57.357,389.809C54.99,415.84 55.658,460.304 90.223,463.185C112.364,465.03 133.514,453.891 154.427,448.662C164.806,446.068 179.746,442.83 176.592,458.599C172.885,477.135 148.552,470.894 137.611,464.713C127.349,458.916 117.41,452.791 107.038,447.134C105.942,446.536 100.305,442.402 98.631,444.076C89.606,453.101 85.814,467.767 84.873,480C83.521,497.569 93.837,499.39 96.338,514.395C96.878,517.639 97.132,524.21 96.338,527.389C95.51,530.697 92.443,534.959 92.516,535.032C93.165,535.681 107.734,532.691 112.389,531.975C133.339,528.751 154.945,530.912 159.777,506.752C160.309,504.092 162.765,497.441 161.306,494.522C157.437,486.786 149.927,487.04 140.669,486.115C125.958,484.644 112.644,480.424 97.866,485.35C91.96,487.319 86.252,489.526 81.051,492.994C78.952,494.393 77.484,500.127 75.701,498.344C73.164,495.807 60.453,476.903 62.707,474.65C64.579,472.778 72.115,473.885 74.172,473.885C86.68,473.885 97.837,476.136 110.096,478.471C115.948,479.586 123.915,480.886 126.911,486.879C130.845,494.747 129.197,513.056 140.669,515.924C157.108,520.033 175.95,493.144 175.95,478.046C175.95,466.838 150.869,467.182 145.255,467.006C122.146,466.284 100.816,469.776 78.674,476.102C69.116,478.833 57.159,484.209 53.535,494.522C50.816,502.259 51.606,512.066 55.064,518.981C57.143,523.139 55.427,530.208 57.357,535.032C61.321,544.943 73.654,553.287 81.051,560.255C85.137,564.104 87.159,569.806 92.516,572.484C97.241,574.847 104.974,568.027 108.567,566.369C117.643,562.181 132.456,552.114 141.433,550.318C151.324,548.34 157.789,559.946 159.777,567.898C160.808,572.02 163.138,573.248 162.07,573.248" style="fill:none;stroke:url(#_Linear1);stroke-width:3px;"/>
    <defs>
        <linearGradient id="_Linear1" x1="0" y1="0" x2="1" y2="0" gradientUnits="userSpaceOnUse" gradientTransform="matrix(191.178,0,0,547.261,14.5541,299.618)"><stop offset="0" style="stop-color:rgb(0,22,255);stop-opacity:1"/><stop offset="0.93" style="stop-color:rgb(210,4,183);stop-opacity:1"/><stop offset="1" style="stop-color:rgb(255,0,167);stop-opacity:1"/></linearGradient>
    </defs>
</svg>
