<?xml version="1.0" encoding="UTF-8" standalone="no"?>
<!DOCTYPE svg PUBLIC "-//W3C//DTD SVG 1.1//EN" "http://www.w3.org/Graphics/SVG/1.1/DTD/svg11.dtd">
<svg width="100%" height="100%" viewBox="0 0 250 600" version="1.1" xmlns="http://www.w3.org/2000/svg" xmlns:xlink="http://www.w3.org/1999/xlink" xml:space="preserve" xmlns:serif="http://www.serif.com/" style="fill-rule:evenodd;clip-rule:evenodd;stroke-linecap:round;stroke-linejoin:round;stroke-miterlimit:1.5;">
    <g transform="matrix(1,0,0,1,-164.832,-33.1461)">
        <path d="M282.618,59.551C282.618,80.06 285.989,102.443 285.989,123.596C285.989,127.178 283.71,143.788 285.989,146.067C290.029,150.107 301.56,160.994 297.225,169.663C285.969,192.175 248.187,181.623 233.18,196.629C225.64,204.169 215.728,208.463 206.214,217.978C200.596,223.596 198.349,232.584 192.731,238.202C187.394,243.539 198.79,269.582 203.967,273.034C209.774,276.906 214.411,286.204 220.821,291.011C241.688,306.662 258.096,318.592 285.989,314.607C293.984,313.465 309.847,308.203 312.956,298.876C322.445,270.409 306.416,257.303 277,257.303C242.679,257.303 212.132,264.869 192.731,284.27C188.278,288.722 172.791,292.991 177,305.618C179.891,314.289 231.403,327.123 241.045,330.337C256.731,335.565 280.196,341.617 298.349,337.079C307.049,334.904 334.527,323.707 343.293,328.09C357.911,335.399 355.509,353.79 362.394,360.674C365.888,364.169 379.118,358.362 383.742,360.674C396.56,367.083 399.639,365.502 406.214,378.652C411.375,388.974 399.35,402.748 389.36,397.753C380.266,393.206 368.609,392.434 359.023,387.64C345.142,380.7 334.581,368.889 319.697,365.169C258.092,349.767 203.407,358.316 178.124,405.618C167.936,424.679 170.695,458.392 188.122,471.463C198.915,479.557 214.597,480.495 225.315,487.64C232.809,492.636 237.156,502.651 243.293,506.742C261.043,518.575 287.902,524.719 310.708,524.719C320.207,524.719 374.474,516.288 378.124,508.989C379.368,506.501 358.249,488.341 353.405,478.652C347.117,466.075 319.781,457.303 303.967,457.303C274.117,457.303 241.806,479.015 220.821,500C214.133,506.687 196.227,523.222 203.967,534.831C209.746,543.501 218.056,552.14 226.439,558.427C231.217,562.011 234.9,568.738 241.045,570.787C256.565,575.96 265.214,563.494 275.877,574.157C278.586,576.866 285.92,571.314 289.36,573.034C291.582,574.145 292.269,579.908 293.854,582.022C298.832,588.66 321.445,606.742 328.686,606.742" style="fill:none;stroke:url(#_Linear1);stroke-width:3px;"/>
    </g>
    <defs>
        <linearGradient id="_Linear1" x1="0" y1="0" x2="1" y2="0" gradientUnits="userSpaceOnUse" gradientTransform="matrix(235.239,0,0,547.191,172.212,333.146)"><stop offset="0" style="stop-color:rgb(0,22,255);stop-opacity:1"/><stop offset="0.93" style="stop-color:rgb(210,4,183);stop-opacity:1"/><stop offset="1" style="stop-color:rgb(255,0,167);stop-opacity:1"/></linearGradient>
    </defs>
</svg>
